<?xml version="1.0" encoding="utf-8"?>
<svg width="177.53394px" height="14.211548px" viewBox="0 0 177.53394 14.211548" version="1.1" xmlns:xlink="http://www.w3.org/1999/xlink" xmlns="http://www.w3.org/2000/svg">
  <g id="txt_logo">
    <path d="M4.65733 13.9672C3.52903 14.0228 2.40864 13.7567 1.43447 13.2017C0.47245 12.5633 -0.0702461 11.4793 0.00732586 10.3512L0.00732586 9.40126L3.44008 9.40126L3.44421 10.5973C3.43311 10.9192 3.56764 11.2298 3.81248 11.4474C4.05732 11.665 4.38799 11.7679 4.71765 11.7291C5.29702 11.8112 5.84296 11.4441 5.96713 10.889C6.05182 10.587 6.04291 10.2675 5.94151 9.97041C5.65889 9.28263 4.64741 8.74475 3.57643 8.17641C2.13689 7.41007 0.50315 6.54112 0.18417 5.08701C0.0627297 4.53526 0.0543062 3.96574 0.159379 3.41084C0.540337 1.12866 2.79881 0.6477 4.62675 0.6477C5.60465 0.606074 6.57831 0.795905 7.46369 1.20081C8.44007 1.70185 9.02049 2.71384 8.94455 3.78279L8.94455 4.65574L5.7531 4.65574L5.7531 3.887C5.77551 3.57722 5.65661 3.2735 5.42786 3.05624C5.19912 2.83898 4.88358 2.73007 4.56477 2.75833C4.00777 2.69193 3.49438 3.05936 3.39546 3.59521C3.352 3.81139 3.35622 4.03405 3.40785 4.24852C3.56073 4.86576 4.51684 5.35715 5.62666 5.92549C7.13975 6.70305 8.8553 7.58402 9.16602 9.08623C9.28243 9.75962 9.2869 10.4468 9.17924 11.1215C9.06957 12.0487 8.50723 12.8683 7.66781 13.3243C6.73928 13.7896 5.70145 14.0113 4.65733 13.9672L4.65733 13.9672ZM46.2462 13.9015C45.1277 13.9574 44.017 13.6937 43.0515 13.1432C42.1027 12.5101 41.5687 11.4384 41.6466 10.3239L41.6466 9.37561L45.0414 9.37561L45.0414 10.5692C45.0325 10.8894 45.1687 11.1973 45.4139 11.4118C45.6592 11.6263 45.989 11.7259 46.3165 11.6842C46.888 11.7643 47.4261 11.402 47.5486 10.8546C47.6268 10.5554 47.6182 10.2411 47.5238 9.94636C47.2445 9.26659 46.2429 8.73433 45.1827 8.1716C43.7539 7.41247 42.1342 6.55235 41.821 5.11506C41.6957 4.56871 41.6862 4.00337 41.7929 3.45333C42.1689 1.19359 44.4092 0.718241 46.2214 0.718241C47.187 0.676521 48.1485 0.863613 49.0228 1.26333C49.9865 1.76037 50.5584 2.76109 50.4822 3.81726L50.4822 4.6846L47.3279 4.6846L47.3279 3.92387C47.352 3.6171 47.2358 3.31558 47.0101 3.09942C46.7844 2.88326 46.4721 2.77435 46.1561 2.80162C45.6039 2.73809 45.0965 3.1034 44.9992 3.63449C44.9604 3.84695 44.964 4.06466 45.01 4.27578C45.1637 4.8858 46.1082 5.37318 47.2023 5.93671C48.6989 6.70866 50.3954 7.58241 50.7004 9.06299C50.8237 9.72908 50.8313 10.4105 50.7227 11.079C50.6155 11.9963 50.0593 12.8074 49.2286 13.2578C48.3093 13.7209 47.2812 13.9428 46.2462 13.9015L46.2462 13.9015ZM58.2551 13.8534C55.4933 13.8534 53.9935 12.8185 53.7968 10.7768C53.7827 10.6526 53.7637 10.182 53.7679 9.95518L53.7679 1.04369L57.0023 1.04369L57.0023 10.2405C56.9932 10.3987 57.0043 10.5572 57.0353 10.7127C57.188 11.2465 57.689 11.6159 58.26 11.6159C58.8311 11.6159 59.332 11.2465 59.4847 10.7127C59.5104 10.5566 59.5196 10.3984 59.512 10.2405L59.512 1.04369L62.7472 1.04369L62.7472 9.95518C62.7561 10.2293 62.7472 10.5037 62.7208 10.7768C62.5208 12.8177 61.0185 13.8534 58.2551 13.8534L58.2551 13.8534ZM84.9395 13.7203C83.8884 13.7607 82.8457 13.5238 81.9224 13.035C81.0508 12.528 80.4967 11.6331 80.4448 10.6486C80.4112 10.3764 80.3941 10.1026 80.3936 9.82852L80.3936 4.60203C80.3936 4.36957 80.4341 3.97518 80.4581 3.77878C80.5303 2.79007 81.088 1.89529 81.9571 1.37396C82.8731 0.892807 83.9072 0.663577 84.9478 0.711027C86.8484 0.711027 89.1713 1.24329 89.4341 3.78039C89.458 4.05415 89.4663 4.32899 89.4589 4.60364L89.4589 5.01085L86.2361 5.01085L86.2361 4.32147C86.2354 4.16044 86.2224 3.99967 86.1972 3.84051C86.0811 3.26133 85.5224 2.86829 84.9188 2.9411C84.3196 2.87942 83.7698 3.26827 83.647 3.84051C83.6047 4.03359 83.5853 4.23073 83.5892 4.42809L83.5892 10.1067C83.5881 10.2649 83.5995 10.423 83.6231 10.5796C83.7476 11.1649 84.3149 11.5592 84.9263 11.4854C85.5387 11.5569 86.1065 11.1644 86.2369 10.5796C86.2653 10.4236 86.2766 10.265 86.2708 10.1067L86.2708 8.31108L84.9585 8.31108L84.9585 6.49944L89.4837 6.49944L89.4837 9.82932C89.4788 10.0514 89.4746 10.2301 89.4358 10.6494C89.1862 13.3211 86.5112 13.7203 84.9395 13.7203L84.9395 13.7203ZM27.4983 13.4734L24.3027 13.4734L24.5779 1.04369L29.7956 1.04369L31.4095 10.7616L33.0234 1.04369L38.2354 1.04369L38.5213 13.4734L35.3166 13.4734L35.2298 1.96715L33.0275 13.4734L29.784 13.4734L27.5851 1.96715L27.4983 13.4734ZM14.7878 13.4734L11.3286 13.4734L13.702 1.04369L19.3874 1.04369L21.7476 13.4734L18.3156 13.4734L16.5736 1.96715L14.7878 13.4734L14.7878 13.4734ZM69.4351 13.3436L66.2949 13.3436L66.2949 1.04369L71.0424 1.04369L74.0504 11.0534L73.8793 1.04369L77.0402 1.04369L77.0402 13.3452L72.4869 13.3452L69.2524 3.01725L69.4342 13.346L69.4351 13.3436Z" id="prefix__Fill_1" fill="#000000" stroke="none" />
    <path d="M103.571 13.9913L100.906 13.9913L105.787 0.671748L108.359 0.671748L113.239 13.9897L110.574 13.9897L109.73 11.6177L104.417 11.6177L103.572 13.9913L103.571 13.9913ZM107.083 4.19321L105.281 9.24896L108.884 9.24896L107.082 4.19882L107.083 4.19321Z" id="prefix__Fill_3" fill="#000000" stroke="none" />
    <g id="prefix__Group_7" transform="translate(113.23558 3.0996733)">
      <path d="M0.000584182 0.000948213L10.9773 0.000948213L10.9773 11.1064L0.000584182 11.1064L0.000584182 0.000948213Z" id="prefix__Clip_6-2" fill="none" fill-rule="evenodd" stroke="none" />
      <g id="prefix__Group_7-2">
        <path d="M0.000584182 5.56251C-0.0212805 4.08638 0.571413 2.66407 1.64459 1.61733C2.71776 0.57058 4.18074 -0.0121539 5.70256 0.000948213C7.97893 -0.0402874 10.052 1.26658 10.9376 3.30117L8.66924 4.23184C8.19122 3.06297 7.01945 2.30127 5.72322 2.31679C4.84537 2.31771 4.00527 2.66323 3.39426 3.27465C2.78325 3.88607 2.45335 4.71135 2.4797 5.56251C2.46146 6.41331 2.79757 7.23531 3.41204 7.84268C4.0265 8.45004 4.86743 8.79148 5.7447 8.78978C7.06477 8.79645 8.24866 8.00278 8.70891 6.8026L10.979 7.7509C10.1134 9.82716 8.01056 11.1645 5.70256 11.1064C4.1855 11.1144 2.72838 10.5325 1.65689 9.49067C0.585391 8.44887 -0.0111539 7.03408 0.000584182 5.56251" id="prefix__Fill_5" fill="#000000" stroke="none" />
      </g>
    </g>
    <g id="prefix__Group_10" transform="translate(124.71803 3.0996733)">
      <path d="M0.000584182 0.000948213L10.9773 0.000948213L10.9773 11.1064L0.000584182 11.1064L0.000584182 0.000948213Z" id="prefix__Clip_9-2" fill="none" fill-rule="evenodd" stroke="none" />
      <g id="prefix__Group_10-2">
        <path d="M0.000584182 5.56251C-0.0212805 4.08638 0.571413 2.66407 1.64459 1.61733C2.71776 0.57058 4.18074 -0.0121539 5.70256 0.000948213C7.97893 -0.0402874 10.052 1.26658 10.9376 3.30117L8.66924 4.23184C8.19122 3.06297 7.01945 2.30127 5.72322 2.31679C4.84537 2.31771 4.00527 2.66323 3.39426 3.27465C2.78325 3.88607 2.45335 4.71135 2.4797 5.56251C2.46146 6.41331 2.79757 7.23531 3.41204 7.84268C4.0265 8.45004 4.86743 8.79148 5.7447 8.78978C7.06477 8.79645 8.24866 8.00278 8.70891 6.8026L10.979 7.7509C10.1134 9.82716 8.01056 11.1645 5.70256 11.1064C4.1855 11.1144 2.72838 10.5325 1.65689 9.49067C0.585391 8.44887 -0.0111539 7.03408 0.000584182 5.56251" id="prefix__Fill_8" fill="#000000" stroke="none" />
      </g>
    </g>
    <g id="prefix__Group_13" transform="translate(136.20044 3.1005037)">
      <path d="M0.000631553 0.000117655L11.3707 0.000117655L11.3707 11.1056L0.000631553 11.1056L0.000631553 0.000117655Z" id="prefix__Clip_12-2" fill="none" fill-rule="evenodd" stroke="none" />
      <g id="prefix__Group_13-2">
        <path d="M5.68608 11.1056C4.17155 11.1124 2.71801 10.5273 1.65338 9.48234C0.587974 8.43996 -0.00659187 7.02953 0.000631553 5.56168C-0.0220702 4.08809 0.568076 2.66775 1.63785 1.62129C2.70762 0.574831 4.16683 -0.00953268 5.68608 0.000117655C7.19588 -0.0073099 8.64563 0.573118 9.71052 1.61135C10.7841 2.66117 11.3816 4.083 11.3707 5.56168C11.3766 7.03068 10.7792 8.44149 9.71052 9.48234C8.6479 10.5253 7.19775 11.1102 5.68608 11.1056L5.68608 11.1056ZM5.68608 2.31596C4.81649 2.32754 3.9883 2.67815 3.38821 3.28875C2.78813 3.89935 2.46666 4.71856 2.49628 5.56168C2.46799 6.40278 2.79046 7.21942 3.39078 7.82695C3.99111 8.43447 4.81858 8.78157 5.68608 8.78975C6.55358 8.78157 7.38105 8.43447 7.98137 7.82695C8.5817 7.21942 8.90417 6.40278 8.87588 5.56168C8.9055 4.71856 8.58403 3.89935 7.98395 3.28875C7.38386 2.67815 6.55567 2.32754 5.68608 2.31596L5.68608 2.31596Z" id="prefix__Fill_11" fill="#000000" stroke="none" />
      </g>
    </g>
    <g id="prefix__Group_16" transform="translate(148.67848 3.3194606)">
      <path d="M0 0L9.88838 0L9.88838 10.8866L0 10.8866L0 0Z" id="prefix__Clip_15-2" fill="none" fill-rule="evenodd" stroke="none" />
      <g id="prefix__Group_16-2">
        <path d="M9.88838 10.6678L7.37373 10.6678L7.37373 9.44615C6.62969 10.3987 5.45211 10.9377 4.22111 10.889C1.5949 10.8866 0 9.22731 0 6.3279L0 0L2.57002 0L2.57002 6.07218C2.57002 7.73151 3.32037 8.75276 4.91527 8.75276C6.3201 8.75276 7.35472 7.73151 7.35472 5.85335L7.35472 0L9.88756 0L9.88838 10.6678Z" id="prefix__Fill_14" fill="#000000" stroke="none" />
      </g>
    </g>
    <path d="M160.123 3.31946L162.637 3.31946L162.637 4.63249C163.415 3.64118 164.636 3.07162 165.921 3.10062C168.679 3.10062 170.274 4.75995 170.274 7.65937L170.274 13.9873L167.703 13.9873L167.703 7.91428C167.703 6.25495 166.877 5.2337 165.224 5.2337C163.78 5.2337 162.653 6.25495 162.653 8.13312L162.653 13.9849L160.123 13.9849L160.123 3.31946Z" id="prefix__Fill_17" fill="#000000" stroke="none" />
    <g id="prefix__Group_21" transform="translate(170.87321 0)">
      <path d="M0 0L6.66057 0L6.66057 13.9865L0 13.9865L0 0Z" id="prefix__Clip_20-2" fill="none" fill-rule="evenodd" stroke="none" />
      <g id="prefix__Group_21-2">
        <path d="M0 3.31866L1.87587 3.31866L1.87587 1.6962L4.42771 0L4.42771 3.31866L6.65892 3.31866L6.65892 5.52549L4.42771 5.52549L4.42771 9.5191C4.42771 11.3788 4.7095 11.6706 6.65892 11.6706L6.65892 13.9865L6.3044 13.9865C2.90801 13.9865 1.87587 12.9291 1.87587 9.53674L1.87587 5.52869L0 5.52869L0 3.31866Z" id="prefix__Fill_19" fill="#000000" stroke="none" />
      </g>
    </g>
  </g>
</svg>